<?xml version="1.0" encoding="UTF-8" standalone="no"?>
<!-- Created with Inkscape (http://www.inkscape.org/) -->

<svg
   width="500"
   height="500"
   viewBox="0 0 132.29166 132.29167"
   version="1.1"
   id="svg1"
   xml:space="preserve"
   inkscape:version="1.3.2 (091e20ef0f, 2023-11-25)"
   sodipodi:docname="Trivia Game logo.svg"
   inkscape:export-filename="Trivia Game logo.png"
   inkscape:export-xdpi="96"
   inkscape:export-ydpi="96"
   xmlns:inkscape="http://www.inkscape.org/namespaces/inkscape"
   xmlns:sodipodi="http://sodipodi.sourceforge.net/DTD/sodipodi-0.dtd"
   xmlns="http://www.w3.org/2000/svg"
   xmlns:svg="http://www.w3.org/2000/svg"><sodipodi:namedview
     id="namedview1"
     pagecolor="#ffffff"
     bordercolor="#000000"
     borderopacity="0.25"
     inkscape:showpageshadow="2"
     inkscape:pageopacity="0.0"
     inkscape:pagecheckerboard="0"
     inkscape:deskcolor="#d1d1d1"
     inkscape:document-units="px"
     showgrid="true"
     inkscape:zoom="1.0356019"
     inkscape:cx="260.71794"
     inkscape:cy="177.67445"
     inkscape:window-width="1920"
     inkscape:window-height="1026"
     inkscape:window-x="0"
     inkscape:window-y="0"
     inkscape:window-maximized="1"
     inkscape:current-layer="layer1"><inkscape:grid
       id="grid1"
       units="px"
       originx="0"
       originy="0"
       spacingx="2.6458333"
       spacingy="2.6458333"
       empcolor="#0099e5"
       empopacity="0.30196078"
       color="#0099e5"
       opacity="0.14901961"
       empspacing="5"
       dotted="false"
       gridanglex="30"
       gridanglez="30"
       visible="true" /></sodipodi:namedview><defs
     id="defs1" /><g
     inkscape:label="Layer 1"
     inkscape:groupmode="layer"
     id="layer1"><path
       fill="#808285"
       d="m 105.52187,81.706756 c 0,4.487252 -3.67229,8.13165 -8.207367,8.13165 H 34.987126 c -4.537066,0 -8.207367,-3.644398 -8.207367,-8.13165 V 19.072524 c 0,-4.49323 3.670301,-8.13165 8.207367,-8.13165 h 62.327377 c 4.535077,0 8.207367,3.63842 8.207367,8.13165 z"
       id="path1"
       style="stroke-width:1.99256" /><path
       fill="#d1d3d4"
       d="m 108.07833,78.002581 c 0,4.780159 -3.91339,8.661672 -8.739382,8.661672 H 32.964675 c -4.831966,0 -8.743368,-3.87952 -8.743368,-8.661672 V 11.305513 c 0.002,-4.7861369 3.913395,-8.6596798 8.743368,-8.6596798 h 66.374273 c 4.825992,0 8.739382,3.8735429 8.739382,8.6596798 z"
       id="path2"
       style="stroke-width:1.99256" /><path
       fill="#405967"
       d="m 97.457968,58.776339 c 0,2.78361 -2.92309,5.031222 -6.521659,5.031222 H 41.369306 c -3.608532,0 -6.521659,-2.247612 -6.521659,-5.031222 V 19.959215 c 0,-2.787596 2.913127,-5.035207 6.521659,-5.035207 h 49.567003 c 3.600561,0 6.521659,2.247611 6.521659,5.035207 z"
       id="path3"
       style="stroke-width:1.99256;fill:#0000ff" /><g
       id="g2"
       transform="matrix(0.71638083,0,0,0.71638083,43.235973,15.440394)"
       style="fill:#f9f9f9"><path
         fill="#d3976e"
         d="M 13.8,22.5 C 9.4,18.1 8,14.4 9.6,11.6 12.7,6.1 27.6,6.1 40,8.9 l -0.4,1.8 C 28,8.2 13.9,8.1 11.3,12.6 c -1.4,2.5 1.3,6.1 3.9,8.7 z"
         id="path1-5"
         style="fill:#f9f9f9" /><path
         fill="#ffce31"
         d="m 41.2,11.3 c -1,1 -2,1.9 -2.9,2.9 -0.9,0.9 0.5,2.2 1.3,1.3 1,-1 2,-1.9 2.9,-2.9 0.9,-0.8 -0.4,-2.2 -1.3,-1.3 M 46.8,8.5 49.7,5.6 C 50.6,4.7 49.2,3.4 48.4,4.3 l -2.9,2.9 c -0.9,0.8 0.4,2.1 1.3,1.3 m -1.4,4.1 c 1,1 2,1.9 2.9,2.9 0.9,0.9 2.2,-0.5 1.3,-1.3 -1,-1 -2,-1.9 -2.9,-2.9 -0.8,-0.9 -2.2,0.5 -1.3,1.3 m -7.1,-7 2.9,2.9 C 42.1,9.4 43.4,8 42.5,7.2 L 39.6,4.3 C 38.8,3.4 37.4,4.8 38.3,5.6"
         id="path2-3"
         style="fill:#f9f9f9" /><path
         fill="#ed4c5c"
         d="m 43,14 v 2.9 c 0,1.2 1.9,1.2 1.9,0 V 14 C 44.9,12.8 43,12.8 43,14 M 43,2.9 v 2.8 c 0,1.2 1.9,1.2 1.9,0 V 2.9 C 44.9,1.7 43,1.7 43,2.9 m 5.2,7.9 h 2.9 c 1.2,0 1.2,-1.9 0,-1.9 H 48.2 C 47,9 47,10.8 48.2,10.8"
         id="path3-5"
         style="fill:#f9f9f9" /><path
         fill="#3e4347"
         d="m 10.7,24.2 6,-5.9 3.8,3.7 C 24,19.6 28.3,18.3 32.9,18.3 45.1,18.2 55,28 55,40.1 55,52.2 45.1,62 32.8,62 20.6,62 10.6,52.2 10.6,40.1 c 0,-4.5 1.4,-8.7 3.8,-12.2 z"
         id="path4-6"
         style="fill:#f9f9f9" /></g><path
       fill="#47616d"
       d="M 62.894967,14.91803 H 41.379269 c -3.608532,0 -6.521659,2.247611 -6.521659,5.035207 v 38.817124 c 0,2.783611 2.913127,5.031222 6.521659,5.031222 H 82.778755 C 66.071112,50.413551 56.676177,31.840869 62.894967,14.91803"
       id="path4"
       style="stroke-width:1.99299998;stroke-dasharray:none;fill:#47616d;fill-opacity:0.39740625" /><path
       fill="#5ded7e"
       d="m 40.231553,73.579091 a 2.6301834,2.6301834 0 0 1 -2.634169,2.62819 2.632176,2.632176 0 1 1 0,-5.264352 2.6281909,2.6281909 0 0 1 2.634169,2.636162"
       id="path5"
       style="stroke-width:1.99256;fill:#ff0000" /><g
       fill="#405967"
       id="g7"
       transform="matrix(1.9925632,0,0,1.9925632,2.6597811,2.6458332)"><path
         d="m 49.35,34.418 c 0,0.367 -0.228,0.665 -0.51,0.665 H 37.053 c -0.282,0 -0.51,-0.298 -0.51,-0.665 0,-0.363 0.228,-0.659 0.51,-0.659 H 48.84 c 0.282,0 0.51,0.296 0.51,0.659"
         id="path6" /><path
         d="m 41.603,35.08 c 0,0.65 -0.091,1.176 -0.2,1.176 H 36.74 c -0.111,0 -0.2,-0.525 -0.2,-1.176 0,-0.648 0.089,-1.174 0.2,-1.174 h 4.663 c 0.109,0 0.2,0.526 0.2,1.174"
         id="path7" /></g><g
       fill="#808285"
       id="g9"
       transform="matrix(1.9925632,0,0,1.9925632,2.6597811,2.6458332)"><path
         d="m 57.696,61.59 c 0,1.183 -2,2.147 -4.483,2.147 H 10.512 c -2.477,0 -4.485,-0.965 -4.485,-2.147 l 4.185,-13.02 c 0,-1.186 2.01,-2.147 4.483,-2.147 h 34.05 c 2.479,0 4.485,0.962 4.485,2.147 l 4.461,13.02"
         id="path8" /><path
         d="m 52.08,61.31 c 0,0.484 -1.566,0.88 -3.507,0.88 H 15.162 c -1.936,0 -3.507,-0.396 -3.507,-0.88 l 1.881,-5.344 c 0,-0.489 2.964,-0.883 4.902,-0.883 H 45.08 c 1.938,0 4.904,0.394 4.904,0.883 z"
         id="path9" /></g><path
       fill="#bcbec0"
       d="m 117.62271,122.27933 c 0,2.3572 -3.98513,4.27803 -8.93266,4.27803 H 23.605605 c -4.935579,0 -8.936645,-1.92282 -8.936645,-4.27803 l 8.338876,-25.943175 c 0,-2.36318 4.005053,-4.278033 8.932661,-4.278033 h 67.846777 c 4.939566,0 8.936646,1.916845 8.936646,4.278033 l 8.88882,25.943175"
       id="path10"
       style="stroke-width:1.99256" /><path
       fill="#808285"
       d="M 79.094505,96.336155 H 39.386706 c -3.861587,0 -9.767545,1.5004 -9.767545,3.367432 L 25.87115,120.09946 c 0,1.8491 3.132309,3.36345 6.987919,3.36345 H 79.086535 V 96.336155 m 23.159565,3.363447 c 0,-1.869025 -5.911938,-3.367432 -9.771533,-3.367432 h -8.145598 v 27.12676 h 15.107614 c 3.865577,0 6.987917,-1.51435 6.987917,-3.36345 z"
       id="path11"
       style="stroke-width:1.99256" /></g></svg>
